<svg aria-hidden="true" style="position: absolute; width: 0; height: 0; overflow: hidden;" version="1.1" xmlns="http://www.w3.org/2000/svg" xmlns:xlink="http://www.w3.org/1999/xlink">
<defs>
<symbol id="icon-logo" viewBox="0 0 32 32">
<path  d="M23.84 14.4c0-0.48 0.16-0.96 0.16-1.6 0-3.52-2.88-6.4-6.4-6.4-2.56 0-4.64 1.44-5.76 3.52-0.32-0.16-0.96-0.32-1.44-0.32-0.012-0-0.025-0-0.039-0-2.188 0-3.961 1.774-3.961 3.961 0 0.014 0 0.027 0 0.041l-0-0.002c0 0.32 0 0.64 0.16 0.8-2.88 0.48-4.96 2.72-4.96 5.6 0 3.040 2.56 5.6 5.6 5.6h16c3.040 0 5.6-2.56 5.6-5.6 0-2.88-2.080-5.28-4.96-5.6z"></path>
</symbol>
<symbol id="icon-play" viewBox="0 0 32 32">
<path  d="M27.5 16l-22.5 15.75v-31.5l22.5 15.75z"></path>
</symbol>
<symbol id="icon-technology-1" viewBox="0 0 32 32">
<path fill="#ed4c5c" style="fill: var(--color2, #ed4c5c)" d="M19.5 22.072h-2.316v-7.572c-0-0.138-0.112-0.249-0.25-0.25h-1.875c-0.138 0-0.25 0.112-0.25 0.25v7.572h-2.309c-0 0-0.001 0-0.001 0-0.138 0-0.249 0.112-0.249 0.249 0 0.058 0.020 0.112 0.054 0.155l-0-0.001 3.5 4.428c0.046 0.058 0.117 0.095 0.197 0.095s0.15-0.037 0.196-0.095l0-0 3.5-4.428c0.033-0.042 0.053-0.096 0.053-0.154 0-0.138-0.112-0.249-0.249-0.249-0 0-0.001 0-0.001 0h0z"></path>
<path fill="#ed4c5c" style="fill: var(--color2, #ed4c5c)" d="M25.356 11.459c-1.431-3.775-5.078-6.459-9.349-6.459s-7.919 2.681-9.35 6.456c-2.679 0.704-4.657 3.144-4.657 6.044 0 3.453 2.797 6.25 6.247 6.25h1.253c0.138-0 0.25-0.112 0.25-0.25v-1.875c-0.001-0.138-0.112-0.249-0.25-0.25h-1.253c-0.002 0-0.005 0-0.008 0-1.088 0-2.071-0.451-2.772-1.177l-0.001-0.001c-0.676-0.696-1.093-1.648-1.093-2.696 0-0.047 0.001-0.095 0.003-0.142l-0 0.007c0.028-0.825 0.309-1.6 0.818-2.253 0.516-0.653 1.224-1.135 2.038-1.359l0.027-0.006 1.184-0.309 0.434-1.144c0.29-0.758 0.667-1.412 1.128-1.997l-0.012 0.016c0.47-0.599 1.009-1.114 1.614-1.543l0.024-0.016c1.213-0.864 2.725-1.381 4.358-1.381 0.006 0 0.012 0 0.018 0h-0.001c1.578 0 3.090 0.478 4.375 1.381 0.628 0.445 1.168 0.96 1.625 1.543l0.013 0.017c0.448 0.569 0.825 1.224 1.098 1.93l0.018 0.052 0.431 1.141 1.181 0.312c1.67 0.462 2.876 1.966 2.878 3.753v0c0 0.003 0 0.007 0 0.010 0 1.067-0.434 2.033-1.134 2.73l-0 0c-0.697 0.701-1.662 1.134-2.728 1.134-0.003 0-0.007 0-0.010 0h-1.253c-0.138 0-0.249 0.112-0.25 0.25v1.875c0 0.138 0.112 0.25 0.25 0.25h1.253c3.45 0 6.247-2.797 6.247-6.25 0-2.897-1.972-5.334-4.644-6.041z"></path>
</symbol>
<symbol id="icon-technology-2" viewBox="0 0 32 32">
<path fill="#ed4c5c" style="fill: var(--color2, #ed4c5c)" d="M16.472 1.691l10.619 3.619c0.259 0.090 0.472 0.387 0.465 0.662v15.075c0 0.278-0.178 0.641-0.393 0.81l-10.772 8.393c-0.106 0.080-0.239 0.128-0.384 0.128-0.003 0-0.007-0-0.010-0h0.001c-0.144 0-0.285-0.044-0.394-0.128l-10.772-8.394c-0.215-0.172-0.394-0.534-0.394-0.809v-15.075c0-0.275 0.213-0.575 0.472-0.662l10.618-3.619c0.129-0.044 0.301-0.065 0.472-0.065s0.344 0.022 0.472 0.065zM16 27.703l9.313-7.256v-13.362l-9.313-3.175-9.313 3.175v13.362l9.313 7.257z"></path>
<path fill="#ed4c5c" style="fill: var(--color2, #ed4c5c)" d="M12.591 16.525l0.011 0.018c-0.444-0.698-0.702-1.527-0.702-2.415 0-1.244 0.504-2.37 1.319-3.185v0c0.815-0.815 1.941-1.319 3.184-1.319s2.369 0.504 3.184 1.319l0 0c0.815 0.815 1.32 1.941 1.32 3.184s-0.504 2.37-1.32 3.185v0c-0.815 0.815-1.941 1.319-3.184 1.319-0.889 0-1.717-0.257-2.397-0.691l-2.422 2.422c-0.097 0.097-0.256 0.097-0.353 0l-1.063-1.063c-0.045-0.045-0.072-0.108-0.072-0.177s0.028-0.131 0.072-0.177l2.422-2.422zM18.172 12.359c-0.449-0.433-1.061-0.699-1.735-0.699-1.382 0-2.502 1.12-2.502 2.502 0 0.674 0.267 1.286 0.7 1.736l-0.001-0.001c0.452 0.453 1.078 0.734 1.769 0.734s1.316-0.28 1.769-0.734l0-0c0.453-0.452 0.734-1.078 0.734-1.769s-0.28-1.316-0.734-1.769l-0-0z"></path>
</symbol>
<symbol id="icon-technology-3" viewBox="0 0 32 32">
<path fill="#ed4c5c" style="fill: var(--color2, #ed4c5c)" d="M10.845 16.306c0-0.665-0.462-1.062-1.276-1.062-0.332 0-0.557 0.032-0.675 0.064v2.135c0.14 0.031 0.311 0.043 0.547 0.043 0.869 0 1.404-0.44 1.404-1.179zM15.887 15.265c-0.364 0-0.601 0.032-0.741 0.065v4.729c0.14 0.032 0.365 0.032 0.568 0.032 1.48 0.011 2.446-0.805 2.446-2.53 0.011-1.502-0.869-2.296-2.273-2.296z"></path>
<path fill="#ed4c5c" style="fill: var(--color2, #ed4c5c)" d="M25.548 12.487h-0.592v-2.861c-0-0.020-0.002-0.038-0.005-0.057l0 0.002c0-0.001 0-0.002 0-0.003 0-0.119-0.043-0.227-0.115-0.311l0.001 0.001-4.764-5.44c-0.059-0.064-0.134-0.112-0.22-0.138l-0.003-0.001-0.026-0.009c-0.037-0.009-0.074-0.014-0.111-0.014h-11.698c-0.535 0.001-0.968 0.434-0.968 0.968v7.862h-0.593c-0.764 0-1.383 0.619-1.383 1.383 0 0 0 0 0 0v-0 7.195c0.001 0.764 0.62 1.383 1.383 1.383h0.593v4.926c0.001 0.535 0.434 0.968 0.968 0.968h15.973c0.534 0 0.968-0.434 0.968-0.968v-4.926h0.593c0.764-0 1.383-0.619 1.383-1.383v-7.195c-0-0.764-0.619-1.383-1.383-1.383h-0zM8.014 4.625h11.214v4.953c0 0.267 0.217 0.484 0.485 0.484h4.276v2.425h-15.974v-7.862zM19.898 17.506c0 1.383-0.504 2.338-1.202 2.928-0.761 0.632-1.919 0.933-3.334 0.933-0.848 0-1.447-0.054-1.856-0.107v-7.1c0.601-0.096 1.384-0.149 2.21-0.149 1.372 0 2.263 0.247 2.96 0.772 0.751 0.557 1.223 1.447 1.223 2.723zM7.273 21.294v-7.133c0.504-0.086 1.212-0.149 2.209-0.149 1.008 0 1.728 0.193 2.209 0.579 0.461 0.365 0.771 0.966 0.771 1.673s-0.235 1.308-0.665 1.716c-0.558 0.526-1.383 0.762-2.349 0.762-0.214 0-0.408-0.011-0.557-0.032v2.585h-1.618zM23.987 27.113h-15.973v-4.664h15.973v4.664zM25.39 15.406h-2.779v1.652h2.596v1.33h-2.596v2.906h-1.64v-7.228h4.418v1.34z"></path>
</symbol>
<symbol id="icon-technology-4" viewBox="0 0 32 32">
<path fill="#ed4c5c" style="fill: var(--color2, #ed4c5c)" d="M28.164 11.236h-0.756v-3.64c-0.001-0.025-0.003-0.048-0.007-0.072l0 0.003c0-0.001 0-0.003 0-0.004 0-0.151-0.056-0.289-0.148-0.395l0.001 0.001-6.068-6.922c-0.036-0.039-0.076-0.073-0.12-0.101l-0.002-0.002-0.040-0.024c-0.035-0.020-0.075-0.037-0.117-0.050l-0.004-0.001-0.033-0.011c-0.043-0.011-0.092-0.018-0.142-0.018h-14.903c-0.68 0-1.232 0.551-1.233 1.231v10.003h-0.756c-0 0-0.001 0-0.001 0-0.972 0-1.76 0.788-1.761 1.76v9.155c0 0.971 0.79 1.76 1.762 1.76h0.756v6.267c-0.001 0.679 0.551 1.231 1.233 1.231h20.35c0.68-0.001 1.232-0.551 1.233-1.231v-6.267h0.756c0 0 0 0 0.001 0 0.972 0 1.761-0.788 1.762-1.76v-9.155c-0.001-0.972-0.789-1.759-1.761-1.759-0.001 0-0.001 0-0.002 0h0zM5.825 1.231h14.286v6.302c0.001 0.34 0.276 0.615 0.616 0.615 0 0 0.001 0 0.001 0h5.448v3.086h-20.351v-10.003zM15.052 18.108c-1.497-0.535-2.485-1.362-2.485-2.67 0-1.534 1.297-2.695 3.407-2.695 1.030 0 1.764 0.2 2.299 0.453l-0.455 1.628c-0.541-0.269-1.178-0.427-1.852-0.427-0.007 0-0.013 0-0.020 0h0.001c-0.883 0-1.31 0.413-1.31 0.867 0 0.575 0.494 0.827 1.67 1.268 1.591 0.587 2.325 1.414 2.325 2.683 0 1.509-1.148 2.789-3.621 2.789-1.029 0-2.044-0.281-2.552-0.561l0.415-1.668c0.656 0.342 1.431 0.547 2.253 0.561l0.004 0c0.936 0 1.431-0.388 1.431-0.975 0-0.561-0.427-0.88-1.51-1.254zM4.439 17.493c0-3.057 2.191-4.751 4.917-4.751 1.056 0 1.857 0.212 2.218 0.387l-0.428 1.614c-0.49-0.211-1.061-0.334-1.66-0.334-0.018 0-0.035 0-0.052 0l0.003-0c-1.603 0-2.859 0.974-2.859 2.975 0 1.788 1.068 2.923 2.872 2.923 0.628 0 1.297-0.119 1.71-0.293l0.296 1.601c-0.361 0.172-1.217 0.388-2.299 0.388-3.113 0.001-4.717-1.947-4.717-4.51zM26.175 29.844h-20.35v-5.934h20.35v5.934zM24.528 21.871h-2.378l-2.886-8.994h2.232l1.095 3.804c0.306 1.080 0.587 2.095 0.801 3.215h0.040c0.285-1.346 0.566-2.411 0.889-3.458l-0.075 0.282 1.15-3.843h2.163l-3.031 8.993z"></path>
</symbol>
<symbol id="icon-appstor" viewBox="0 0 32 32">
<path fill="#fff" style="fill: var(--color1, #fff)" d="M16 2c-7.734 0-14 6.266-14 14s6.266 14 14 14 14-6.266 14-14-6.266-14-14-14zM10.687 22.118c-0.171 0.288-0.48 0.478-0.834 0.478-0.002 0-0.004 0-0.006-0h0c-0.003 0-0.006 0-0.009 0-0.179 0-0.345-0.050-0.487-0.137l0.004 0.002c-0.29-0.171-0.482-0.482-0.482-0.837 0-0.18 0.049-0.348 0.134-0.492l-0.002 0.005 0.956-1.59c0.097-0.162 0.271-0.268 0.469-0.268 0 0 0 0 0.001 0h0.142c0.693 0 1.178 0.417 1.32 0.82l-1.206 2.020zM18.778 18.993l-10.418 0.007c-0.001 0-0.003 0-0.004 0-0.534 0-0.966-0.433-0.966-0.966 0-0.015 0-0.031 0.001-0.046l-0 0.002c0.020-0.524 0.478-0.922 1-0.922h3.015l3.575-6.084-1.158-1.972c-0.26-0.45-0.145-1.042 0.302-1.325 0.149-0.098 0.332-0.156 0.528-0.156 0.356 0 0.667 0.191 0.836 0.475l0.002 0.004 0.619 1.057h0.006l0.62-1.057c0.173-0.287 0.483-0.477 0.838-0.477 0.195 0 0.377 0.057 0.529 0.156l-0.004-0.002c0.444 0.282 0.559 0.875 0.296 1.326l-4.725 8.056v0.007h3.6c0.451 0 1.017 0.242 1.246 0.632l0.020 0.041c0.202 0.343 0.316 0.579 0.316 0.922-0.004 0.118-0.030 0.228-0.075 0.328l0.002-0.005-0.002-0.002zM23.638 19h-1.695v0.007l1.239 2.107c0.088 0.145 0.14 0.32 0.14 0.508 0 0.351-0.183 0.66-0.459 0.835l-0.004 0.002c-0.144 0.090-0.32 0.143-0.507 0.143-0.177 0-0.343-0.048-0.486-0.131l0.005 0.003c-0.149-0.085-0.27-0.203-0.356-0.345l-0.002-0.004-2.968-5.054-1.467-2.509c-0.211-0.349-0.335-0.771-0.335-1.222 0-0.422 0.109-0.819 0.301-1.164l-0.006 0.012c0.29-0.512 0.511-0.647 0.511-0.647l3.265 5.521h2.806c0.525 0 0.976 0.404 1 0.922 0 0.011 0.001 0.023 0.001 0.036 0 0.541-0.439 0.98-0.98 0.98h-0.002z"></path>
</symbol>
<symbol id="icon-googleplay" viewBox="0 0 32 32">
<path fill="#fff" style="fill: var(--color1, #fff)" d="M3 3.718v24.563c0 0 0 0 0 0 0 0.149 0.121 0.27 0.27 0.27 0.074 0 0.141-0.030 0.19-0.078l-0 0 12.79-12.473-12.79-12.474c-0.049-0.048-0.116-0.078-0.19-0.078-0.149 0-0.27 0.121-0.27 0.27 0 0 0 0 0 0v0zM21.613 10.875l-16.047-8.841c-0.276-0.15-0.538 0.224-0.312 0.442l12.57 12.020 3.788-3.621zM5.255 29.524c-0.228 0.218 0.035 0.592 0.312 0.442l0.010-0.006 16.035-8.835-3.788-3.622-12.569 12.021zM28.086 14.438l-4.478-2.467-4.21 4.029 4.21 4.027 4.478-2.465c1.218-0.673 1.218-2.451 0-3.125z"></path>
</symbol>
<symbol id="icon-windows" viewBox="0 0 32 32">
<path fill="#fff" style="fill: var(--color1, #fff)" d="M0 4.599l13-1.799v12.601h-13v-10.803zM14.599 2.599l17.401-2.599v15.2h-17.401v-12.601zM0 16.8h13v12.601l-13-1.803v-10.799zM14.599 16.8h17.401v15.2l-17.2-2.401z"></path>
</symbol>
<symbol id="icon-icon" viewBox="0 0 32 32">
<path d="M16 16c2.946 0 5.333-2.388 5.333-5.333s-2.388-5.333-5.333-5.333v0c-2.946 0-5.333 2.388-5.333 5.333s2.388 5.333 5.333 5.333v0zM16 18.667c-3.561 0-10.667 1.787-10.667 5.333v1.333c0 0.732 0.599 1.333 1.333 1.333h18.667c0.732 0 1.333-0.601 1.333-1.333v-1.333c0-3.547-7.108-5.333-10.667-5.333z"></path>
</symbol>
</defs>
</svg>
